<svg width="370" height="370" viewBox="0 0 370 370" fill="none" xmlns="http://www.w3.org/2000/svg">
<g clip-path="url(#clip0_1_116)">
<path d="M185 370C287.173 370 370 287.173 370 185C370 82.8273 287.173 0 185 0C82.8273 0 0 82.8273 0 185C0 287.173 82.8273 370 185 370Z" fill="url(#paint0_linear_1_116)"/>
<path fill-rule="evenodd" clip-rule="evenodd" d="M83.7414 183.047C137.672 159.55 173.635 144.059 191.629 136.575C243.005 115.207 253.681 111.494 260.639 111.371C262.17 111.345 265.591 111.724 267.808 113.523C271.096 116.191 271.115 121.982 270.75 125.815C267.965 155.068 255.919 226.057 249.79 258.821C247.196 272.684 242.09 277.333 237.147 277.788C226.404 278.776 218.246 270.687 207.84 263.867C191.558 253.193 182.359 246.549 166.554 236.134C148.289 224.098 160.13 217.483 170.539 206.671C173.263 203.842 220.598 160.787 221.514 156.881C221.629 156.392 221.735 154.571 220.654 153.61C219.572 152.649 217.975 152.977 216.824 153.238C215.19 153.609 189.179 170.802 138.79 204.816C131.406 209.886 124.719 212.356 118.727 212.227C112.122 212.084 99.4158 208.492 89.97 205.422C78.3843 201.656 69.1763 199.664 69.9784 193.269C70.3961 189.936 74.9835 186.53 83.7414 183.047Z" fill="white"/>
</g>
<defs>
<linearGradient id="paint0_linear_1_116" x1="185" y1="0" x2="185" y2="367.109" gradientUnits="userSpaceOnUse">
<stop stop-color="#2AABEE"/>
<stop offset="1" stop-color="#229ED9"/>
</linearGradient>
<clipPath id="clip0_1_116">
<rect width="370" height="370" fill="white"/>
</clipPath>
</defs>
</svg>
