<svg width="240" height="205" viewBox="0 0 240 205" fill="none" xmlns="http://www.w3.org/2000/svg">
<path d="M115.131 139.365C113.17 139.336 111.235 138.917 109.438 138.131C107.641 137.346 106.019 136.21 104.666 134.791L62.5098 90.2786C61.1829 88.8843 60.1441 87.242 59.4528 85.4457C58.7615 83.6493 58.4314 81.7343 58.4812 79.8102C58.5311 77.8861 58.96 75.9907 59.7435 74.2326C60.5269 72.4745 61.6495 70.8882 63.0468 69.5645C64.4442 68.2409 66.0889 67.2059 67.8869 66.5188C69.6848 65.8317 71.6006 65.506 73.5246 65.5603C75.4486 65.6147 77.343 66.048 79.0992 66.8355C80.8555 67.6231 82.4392 68.7493 83.7596 70.1497L115.577 103.74L215.031 4.28473C217.778 1.54814 221.499 0.0132182 225.376 0.0168521C229.254 0.0204861 232.971 1.56238 235.713 4.30411C238.455 7.04584 239.996 10.7634 240 14.6408C240.004 18.5182 238.469 22.2386 235.732 24.9854L125.641 135.077C122.89 137.812 119.171 139.353 115.291 139.365H115.131Z" fill="#00A318"/>
<path d="M96.3596 204.766C81.157 203.857 66.3481 199.571 53.0101 192.22C39.6721 184.868 28.1404 174.636 19.2538 162.268C10.3672 149.9 4.34916 135.706 1.63745 120.72C-1.07425 105.734 -0.411444 90.3313 3.57766 75.6332C7.56677 60.9352 14.7819 47.3111 24.6981 35.752C34.6144 24.1929 46.9825 14.9895 60.9027 8.81112C74.8229 2.63275 89.9453 -0.365154 105.17 0.0354633C120.394 0.436081 135.338 4.22515 148.914 11.1271C151.907 12.6581 154.283 15.1721 155.643 18.2473C157.002 21.3224 157.262 24.7716 156.38 28.016C155.498 31.2604 153.526 34.1025 150.796 36.0655C148.067 38.0285 144.745 38.9929 141.388 38.7968C139.37 38.6778 137.4 38.1358 135.605 37.2059C121.555 30.0554 105.572 27.6314 90.033 30.2942C74.4944 32.9571 60.2304 40.5646 49.3627 51.9853C38.4949 63.406 31.604 78.0296 29.7149 93.6811C27.8258 109.333 31.0393 125.176 38.8776 138.854C46.7159 152.533 58.7602 163.316 73.219 169.599C87.6778 175.883 103.779 177.331 119.127 173.729C134.475 170.127 148.25 161.667 158.404 149.607C168.558 137.547 174.547 122.532 175.482 106.795C175.592 104.873 176.08 102.992 176.918 101.259C177.756 99.5265 178.927 97.976 180.365 96.6964C181.803 95.4169 183.479 94.4334 185.297 93.8023C187.116 93.1713 189.041 92.9049 190.962 93.0186C192.883 93.1323 194.764 93.6238 196.495 94.4649C198.226 95.3061 199.774 96.4803 201.051 97.9205C202.328 99.3607 203.308 101.039 203.936 102.858C204.564 104.678 204.827 106.603 204.709 108.524C203.075 135.644 190.75 161.008 170.437 179.051C150.124 197.094 123.483 206.342 96.3596 204.766Z" fill="#00A318"/>
</svg>
